<svg width="227.34" height="225.17" xmlns="http://www.w3.org/2000/svg">

 <g>
  <title>background</title>
  <rect fill="none" id="canvas_background" height="227.17" width="229.34" y="-1" x="-1"/>
 </g>
 <g>
  <title>Layer 1</title>
  <path stroke="#000" id="svg_1" clip-rule="evenodd" d="m22.149227,74.437049l53.51,-52.3l76.44,0l53.41,54.84l0,73.96l-53.41,52.39l-75.26,0l-54.69,-53.96l0,-74.93z" stroke-width="13.975" stroke-miterlimit="10" fill-rule="evenodd" fill="#fae013"/>
  <path id="svg_2" d="m74.499227,158.157049c-0.96,0 -1.87,0.11 -2.69,0.4c-0.79,0.28 -1.5,0.68 -2.07,1.19c-0.6,0.51 -1.05,1.16 -1.39,1.9c-0.31,0.77 -0.48,1.64 -0.48,2.61c0,0.99 0.14,1.84 0.45,2.58c0.28,0.74 0.71,1.36 1.28,1.84s1.25,0.85 2.04,1.11c0.82,0.26 1.73,0.4 2.75,0.4c0.74,0 1.47,-0.06 2.24,-0.17c0.77,-0.09 1.47,-0.23 2.15,-0.4l0,2.58c-0.68,0.17 -1.42,0.28 -2.18,0.4c-0.79,0.09 -1.59,0.11 -2.44,0.11c-1.64,0 -3.09,-0.2 -4.34,-0.6c-1.25,-0.4 -2.27,-0.96 -3.12,-1.67a7.599,7.599 0 0 1 -1.9,-2.61c-0.4,-1.02 -0.62,-2.15 -0.62,-3.37c0,-1.25 0.23,-2.41 0.68,-3.49s1.11,-2.01 1.96,-2.81s1.9,-1.42 3.17,-1.87c1.25,-0.45 2.69,-0.68 4.31,-0.68c0.82,0 1.59,0.03 2.32,0.14c0.74,0.09 1.39,0.23 1.98,0.4l0,2.52c-0.77,-0.2 -1.5,-0.31 -2.15,-0.4c-0.67,-0.08 -1.32,-0.11 -1.95,-0.11zm11.43,11.73l9.52,0l0,2.52l-13.07,0l0,-16.5l12.56,0l0,2.52l-9.01,0l0,4.28l7.74,0l0,2.52l-7.74,0l0,4.66zm18.65,-3.85c-0.31,0 -0.62,-0.03 -0.94,-0.03c-0.31,0 -0.6,-0.03 -0.88,-0.06l0,6.46l-3.54,0l0,-16.5l5.58,0c0.94,0 1.76,0.06 2.47,0.11c0.68,0.06 1.3,0.17 1.87,0.31c1.3,0.34 2.32,0.91 3.03,1.64c0.74,0.77 1.08,1.73 1.08,2.89c0,0.79 -0.17,1.5 -0.57,2.15c-0.4,0.62 -0.96,1.16 -1.7,1.62c-0.74,0.45 -1.64,0.79 -2.72,1.02c-1.07,0.25 -2.29,0.39 -3.68,0.39zm-1.81,-2.61c0.2,0.03 0.45,0.03 0.77,0.06l0.99,0c0.94,0 1.76,-0.06 2.38,-0.17c0.65,-0.14 1.16,-0.31 1.56,-0.57c0.4,-0.23 0.68,-0.51 0.85,-0.85c0.17,-0.31 0.28,-0.68 0.28,-1.08c0,-0.48 -0.14,-0.91 -0.4,-1.28c-0.26,-0.34 -0.71,-0.62 -1.36,-0.82c-0.34,-0.09 -0.77,-0.17 -1.25,-0.2c-0.51,-0.06 -1.11,-0.09 -1.81,-0.09l-2.01,0l0,5zm28.26,-3.12c0,0.71 -0.17,1.36 -0.54,1.96c-0.4,0.6 -1.02,1.11 -1.87,1.5l0,0.06c0.48,0.14 0.91,0.31 1.3,0.51c0.43,0.23 0.77,0.48 1.05,0.79c0.28,0.28 0.51,0.62 0.68,1.02c0.17,0.37 0.26,0.79 0.26,1.25c0,0.43 -0.09,0.85 -0.23,1.3c-0.14,0.45 -0.43,0.91 -0.79,1.33c-0.37,0.43 -0.88,0.82 -1.5,1.19s-1.42,0.65 -2.38,0.88c-0.26,0.03 -0.51,0.09 -0.79,0.11c-0.28,0.06 -0.6,0.09 -0.96,0.11c-0.34,0.03 -0.71,0.06 -1.13,0.06c-0.45,0.03 -0.91,0.03 -1.45,0.03l-5.64,0l0,-16.5l6.72,0c1.45,0 2.61,0.14 3.49,0.37c0.65,0.2 1.22,0.43 1.7,0.71c0.48,0.31 0.88,0.62 1.19,0.99c0.31,0.34 0.54,0.74 0.71,1.13c0.12,0.41 0.18,0.81 0.18,1.2zm-10.46,4.94l0,4.65l2.32,0c0.62,0 1.16,-0.03 1.59,-0.06c0.45,-0.03 0.82,-0.06 1.16,-0.14c0.48,-0.09 0.88,-0.2 1.22,-0.37c0.34,-0.14 0.6,-0.31 0.79,-0.51s0.34,-0.4 0.45,-0.62c0.09,-0.26 0.11,-0.48 0.11,-0.77c0,-0.45 -0.14,-0.85 -0.45,-1.19c-0.28,-0.37 -0.77,-0.62 -1.39,-0.79c-0.28,-0.06 -0.62,-0.11 -0.99,-0.14c-0.37,-0.03 -0.85,-0.06 -1.45,-0.06l-3.36,0zm3.2,-2.53c0.96,0 1.67,-0.09 2.15,-0.26c0.54,-0.2 0.91,-0.45 1.13,-0.77c0.23,-0.34 0.34,-0.71 0.34,-1.13c0,-0.45 -0.14,-0.82 -0.4,-1.16c-0.26,-0.34 -0.71,-0.6 -1.33,-0.77a6.74,6.74 0 0 0 -0.91,-0.14c-0.34,-0.03 -0.77,-0.06 -1.28,-0.06l-2.92,0l0,4.28l3.22,0l0,0.01zm11.71,9.7l0,-16.5l3.57,0l0,16.5l-3.57,0zm17.63,-14.26c-0.96,0 -1.87,0.11 -2.66,0.4c-0.82,0.28 -1.53,0.68 -2.1,1.19c-0.6,0.51 -1.05,1.16 -1.36,1.9c-0.34,0.77 -0.51,1.64 -0.51,2.61c0,0.99 0.14,1.84 0.45,2.58c0.28,0.74 0.74,1.36 1.28,1.84c0.57,0.48 1.25,0.85 2.07,1.11c0.79,0.26 1.7,0.4 2.72,0.4c0.74,0 1.5,-0.06 2.24,-0.17c0.79,-0.09 1.5,-0.23 2.15,-0.4l0,2.58c-0.68,0.17 -1.39,0.28 -2.18,0.4c-0.79,0.09 -1.59,0.11 -2.44,0.11c-1.64,0 -3.09,-0.2 -4.34,-0.6c-1.22,-0.4 -2.27,-0.96 -3.12,-1.67a7.387,7.387 0 0 1 -1.87,-2.61c-0.43,-1.02 -0.65,-2.15 -0.65,-3.37c0,-1.25 0.23,-2.41 0.68,-3.49a8.105,8.105 0 0 1 1.96,-2.81c0.85,-0.79 1.9,-1.42 3.17,-1.87c1.28,-0.45 2.69,-0.68 4.31,-0.68c0.82,0 1.59,0.03 2.32,0.14c0.74,0.09 1.39,0.23 1.98,0.4l0,2.52c-0.77,-0.2 -1.5,-0.31 -2.15,-0.4c-0.65,-0.08 -1.3,-0.11 -1.95,-0.11z" fill="#141515"/>
  <path id="svg_3" class="st2" d="m112.719227,144.647049l-13.55,-0.2l0.49,-57.48l-51.62,-0.43l0.21,-14.71l127.22,-0.05l-14.32,14.88l-48.45,0.53l0.02,57.46z"/>
  <path id="svg_4" class="st3" d="m131.779227,123.477049l9.51,7.43l31.12,-35.76l-14.94,-0.12l-25.69,28.45z"/>
  <path id="svg_5" class="st3" d="m174.659227,144.737049l-17.97,-0.08l-29.25,-24.19l7.19,-8.82l40.03,33.09z"/>
  <path id="svg_6" class="st3" d="m122.3897,144.757577l0.302832,-49.89l13.21,0.080185l-0.302832,49.89l-13.21,-0.080185z"/>
  <path id="svg_7" class="st2" d="m93.659227,120.797049c-0.26,8.04 -3.56,15.43 -10.83,20.7c-9.71,7.04 -22.66,5.55 -30.88,-3.39c-9.35,-10.15 -9.25,-26.54 0.21,-36.56c11.27,-11.95 30.1,-9.35 38.14,5.26c2.25,4.1 3.32,8.5 3.36,13.99zm-10.98,-0.82c-0.13,-1.1 -0.16,-2.24 -0.42,-3.31c-1.32,-5.35 -4.46,-9.17 -9.9,-10.52c-5.31,-1.32 -9.81,0.42 -13.23,4.66c-4.5,5.58 -4.1,14 0.81,19.23c4.97,5.29 13.14,5.49 18.32,0.41c2.92,-2.85 4.32,-6.38 4.42,-10.47z"/>
 </g>
</svg>