<svg xmlns="http://www.w3.org/2000/svg" id="Слой_1" x="0" y="0" version="1.1" viewBox="0 0 197.34 195.17" xml:space="preserve">
  <defs/>
  <path fill="#fae013" fill-rule="evenodd" stroke="#000" stroke-miterlimit="10" stroke-width="13.975" d="M6.99 59.29L60.5 6.99h76.44l53.41 54.84v73.96l-53.41 52.39H61.68L6.99 134.22z" clip-rule="evenodd"/>
  <path fill="#141515" d="M59.34 143.01c-.96 0-1.87.11-2.69.4-.79.28-1.5.68-2.07 1.19-.6.51-1.05 1.16-1.39 1.9-.31.77-.48 1.64-.48 2.61 0 .99.14 1.84.45 2.58.28.74.71 1.36 1.28 1.84s1.25.85 2.04 1.11c.82.26 1.73.4 2.75.4.74 0 1.47-.06 2.24-.17.77-.09 1.47-.23 2.15-.4v2.58c-.68.17-1.42.28-2.18.4-.79.09-1.59.11-2.44.11-1.64 0-3.09-.2-4.34-.6-1.25-.4-2.27-.96-3.12-1.67a7.599 7.599 0 01-1.9-2.61c-.4-1.02-.62-2.15-.62-3.37 0-1.25.23-2.41.68-3.49s1.11-2.01 1.96-2.81 1.9-1.42 3.17-1.87c1.25-.45 2.69-.68 4.31-.68.82 0 1.59.03 2.32.14.74.09 1.39.23 1.98.4v2.52c-.77-.2-1.5-.31-2.15-.4-.67-.08-1.32-.11-1.95-.11zm11.43 11.73h9.52v2.52H67.22v-16.5h12.56v2.52h-9.01v4.28h7.74v2.52h-7.74v4.66zm18.65-3.85c-.31 0-.62-.03-.94-.03-.31 0-.6-.03-.88-.06v6.46h-3.54v-16.5h5.58c.94 0 1.76.06 2.47.11.68.06 1.3.17 1.87.31 1.3.34 2.32.91 3.03 1.64.74.77 1.08 1.73 1.08 2.89 0 .79-.17 1.5-.57 2.15-.4.62-.96 1.16-1.7 1.62-.74.45-1.64.79-2.72 1.02-1.07.25-2.29.39-3.68.39zm-1.81-2.61c.2.03.45.03.77.06h.99c.94 0 1.76-.06 2.38-.17.65-.14 1.16-.31 1.56-.57.4-.23.68-.51.85-.85.17-.31.28-.68.28-1.08 0-.48-.14-.91-.4-1.28-.26-.34-.71-.62-1.36-.82-.34-.09-.77-.17-1.25-.2-.51-.06-1.11-.09-1.81-.09h-2.01v5zm28.26-3.12c0 .71-.17 1.36-.54 1.96-.4.6-1.02 1.11-1.87 1.5v.06c.48.14.91.31 1.3.51.43.23.77.48 1.05.79.28.28.51.62.68 1.02.17.37.26.79.26 1.25 0 .43-.09.85-.23 1.3-.14.45-.43.91-.79 1.33-.37.43-.88.82-1.5 1.19s-1.42.65-2.38.88c-.26.03-.51.09-.79.11-.28.06-.6.09-.96.11-.34.03-.71.06-1.13.06-.45.03-.91.03-1.45.03h-5.64v-16.5h6.72c1.45 0 2.61.14 3.49.37.65.2 1.22.43 1.7.71.48.31.88.62 1.19.99.31.34.54.74.71 1.13.12.41.18.81.18 1.2zm-10.46 4.94v4.65h2.32c.62 0 1.16-.03 1.59-.06.45-.03.82-.06 1.16-.14.48-.09.88-.2 1.22-.37.34-.14.6-.31.79-.51s.34-.4.45-.62c.09-.26.11-.48.11-.77 0-.45-.14-.85-.45-1.19-.28-.37-.77-.62-1.39-.79-.28-.06-.62-.11-.99-.14-.37-.03-.85-.06-1.45-.06h-3.36zm3.2-2.53c.96 0 1.67-.09 2.15-.26.54-.2.91-.45 1.13-.77.23-.34.34-.71.34-1.13 0-.45-.14-.82-.4-1.16-.26-.34-.71-.6-1.33-.77a6.74 6.74 0 00-.91-.14c-.34-.03-.77-.06-1.28-.06h-2.92v4.28h3.22zm11.71 9.7v-16.5h3.57v16.5h-3.57zm17.63-14.26c-.96 0-1.87.11-2.66.4-.82.28-1.53.68-2.1 1.19-.6.51-1.05 1.16-1.36 1.9-.34.77-.51 1.64-.51 2.61 0 .99.14 1.84.45 2.58.28.74.74 1.36 1.28 1.84.57.48 1.25.85 2.07 1.11.79.26 1.7.4 2.72.4.74 0 1.5-.06 2.24-.17.79-.09 1.5-.23 2.15-.4v2.58c-.68.17-1.39.28-2.18.4-.79.09-1.59.11-2.44.11-1.64 0-3.09-.2-4.34-.6-1.22-.4-2.27-.96-3.12-1.67a7.387 7.387 0 01-1.87-2.61c-.43-1.02-.65-2.15-.65-3.37 0-1.25.23-2.41.68-3.49a8.105 8.105 0 011.96-2.81c.85-.79 1.9-1.42 3.17-1.87 1.28-.45 2.69-.68 4.31-.68.82 0 1.59.03 2.32.14.74.09 1.39.23 1.98.4v2.52c-.77-.2-1.5-.31-2.15-.4-.65-.08-1.3-.11-1.95-.11z"/>
  <path d="M97.56 129.5l-13.55-.2.49-57.48-51.62-.43.21-14.71 127.22-.05-14.32 14.88-48.45.53z" class="st2"/>
  <path d="M116.62 108.33l9.51 7.43L157.25 80l-14.94-.12z" class="st3"/>
  <path d="M159.5 129.59l-17.97-.08-29.25-24.19 7.19-8.82z" class="st3"/>
  <path d="M89.04 98.11h49.89v13.21H89.04z" class="st3" transform="matrix(.00607 -1 1 .00607 8.58 218.055)"/>
  <path d="M78.5 105.65c-.26 8.04-3.56 15.43-10.83 20.7-9.71 7.04-22.66 5.55-30.88-3.39-9.35-10.15-9.25-26.54.21-36.56 11.27-11.95 30.1-9.35 38.14 5.26 2.25 4.1 3.32 8.5 3.36 13.99zm-10.98-.82c-.13-1.1-.16-2.24-.42-3.31-1.32-5.35-4.46-9.17-9.9-10.52-5.31-1.32-9.81.42-13.23 4.66-4.5 5.58-4.1 14 .81 19.23 4.97 5.29 13.14 5.49 18.32.41 2.92-2.85 4.32-6.38 4.42-10.47z" class="st2"/>
</svg>
